<svg height="191" viewBox="0 0 1493 191" width="1493" xmlns="http://www.w3.org/2000/svg" xmlns:xlink="http://www.w3.org/1999/xlink"><radialGradient id="a" cx="80.826%" cy="0%" gradientTransform="matrix(-.50619204 .81591012 -.71432441 -.57817876 1.217396 -.659468)" r="90.171%"><stop offset="0" stop-color="#00e1ff"/><stop offset="1" stop-color="#00a5ff"/></radialGradient><g fill="none" transform="translate(0 -1)"><path d="m0 95.82c.93366439-1.3431834 1.77237192-2.7499398 2.51-4.21 4.66666667-8.0733333 9.29-16.1566667 13.87-24.25 3.7466667-6.5133333 7.49-13.02 11.23-19.52l14.54-25.37c3.2333333-5.6466667 6.47-11.3033333 9.71-16.97.63-1.1 1.33-2.17 1.88-3.31.3106117-.70169808 1.0506328-1.11054949 1.81-1 6.37 0 12.73.07 19.1 0 13-.14 26-.1 39-.11h.76l20.59-.08h27.76c.394967-.06048119.798996-.00126999 1.16.17 1.26 2.11 2.52 4.21 3.76 6.32 1.49 2.54 3 5 4.4 7.64 1.76 3.26 3.66 6.44 5.49 9.66.3.52.08.68-.37.84l-15.8 5.64-23.4 8.42-23.76 8.51-34 12.2c-2.223123.6079942-4.2762423 1.7201005-6 3.25-3.1460619 2.9665183-4.2062477 7.5304409-2.69 11.58 1.72 5.21 3.65 10.34 5.49 15.5l11.36 31.61c2.93 8.2 5.84 16.41 8.78 24.6 1.54 4.3 4.44 7.11 9 7.91 2.22487.308258 4.491693.021886 6.57-.83 7.866667-2.846667 15.74-5.676667 23.62-8.49l28.34-10.14c8.993333-3.22 17.993333-6.453333 27-9.7 3.7-1.333333 7.4-2.666667 11.10052-4 .15948.89-36.68052 65.92-37.95052 68.22-.246571.517767-.776864.839871-1.35.82-14.18 0-27.94-.07-41.69.08-11.37.12-22.75-.12-34.11.14-10.58.24-21.16 0-31.75.17-.6426992.061804-1.2535818-.291864-1.52-.88-3.6466667-6.313333-7.3133333-12.62-11-18.92-3.4266667-5.906667-6.8533333-11.803333-10.28-17.69l-15.16-26.1-14.75-25.36c-1-1.66-1.92-3.33-2.88-5-.16670736-.4369735-.2906213-.8890919-.37-1.35zm188.83-51c.34 0 .39.22.51.41 4.29 6.51 8 13.39 11.91 20.1 3.606667 6.1133333 7.19 12.25 10.75 18.41 1.58 2.71 3.14 5.43 4.71 8.15l.11.22c.58 1.16.56 1.11-.63 1.54-4.88 1.71-9.75 3.46-14.62 5.21l-24.81 8.91-30.32 10.88-27.62 9.9c-1.17.42-2.36.78-3.51 1.26-.7.29-1 .06-1.18-.56-1.43-4-2.89-8-4.33-12.06-1.82-5.086667-3.636667-10.173333-5.45-15.26l-6.82-19.18c-.44-1.25-.85-2.52-1.38-3.73-.32-.75-.05-1 .6-1.22 3.47-1.22 6.92-2.48 10.38-3.73l15.56-5.58 41.83-15 23.71-8.49z" fill="url(#a)"/><path d="m303.47 142.95c-25.586667 0-38.38-8.04-38.38-24.12v-45.77c0-16.08 12.793333-24.12 38.38-24.12h63.53c2.073333 0 3.433333.5833333 4.08 1.75.755164 1.6426861 1.09841 3.4447282 1 5.25.09841 1.8052718-.244836 3.6073139-1 5.25-.646667 1.2066667-2.006667 1.81-4.08 1.81h-63c-7.606667 0-13.14.9733333-16.6 2.92s-5.19 4.3466667-5.19 7.2v45.77c0 2.766667 1.73 5.143333 5.19 7.13s8.993333 2.986667 16.6 3h63.14c2.073333 0 3.406667.583333 4 1.75 1.210552 3.374724 1.210552 7.065276 0 10.44-.606667 1.213333-1.94 1.82-4 1.82zm116.17 0c-25.586667 0-38.38-8.04-38.38-24.12v-45.77c0-16.08 12.793333-24.12 38.38-24.12h37.73c25.586667 0 38.38 8.04 38.38 24.12v45.77c0 16.08-12.793333 24.12-38.38 24.12zm37.21-14c7.606667 0 13.14-1 16.6-3s5.19-4.376667 5.19-7.13v-45.76c0-2.8533333-1.73-5.2533333-5.19-7.2s-8.993333-2.9-16.6-2.86h-36.7c-7.606667 0-13.14.9733333-16.6 2.92s-5.19 4.3466667-5.19 7.2v45.77c0 2.766667 1.73 5.143333 5.19 7.13s8.993333 2.986667 16.6 3zm189.42-75.2c1.225253-1.5240426 2.804395-2.725563 4.6-3.5 1.796453-.6991757 3.712677-1.0389316 5.64-1 6.393333 0 9.59 2.94 9.59 8.82v79.35c0 2.506667-.733333 4.15-2.2 4.93-4.192117 1.564528-8.807883 1.564528-13 0-1.466667-.78-2.2-2.423333-2.2-4.93v-61.5l-51.7 62.62c-1.245506 1.545469-2.789544 2.824231-4.54 3.76-1.783386.827275-3.734929 1.227855-5.7 1.17-2.156409.066883-4.301871-.332194-6.29-1.17-1.806199-.876476-3.381704-2.164281-4.6-3.76l-51.87-62.62v61.46c0 2.506667-.733333 4.15-2.2 4.93-2.038817.891268-4.258233 1.291996-6.48 1.17-2.17001.10709-4.33483-.297101-6.32-1.18-1.466667-.78-2.2-2.423333-2.2-4.93v-79.37c0-5.88 3.153333-8.82 9.46-8.82 3.928594-.1352672 7.702395 1.537883 10.24 4.54l59.64 72zm171.53 0c1.225253-1.5240426 2.804395-2.725563 4.6-3.5 1.796453-.6991757 3.712677-1.0389316 5.64-1 6.393333 0 9.59 2.94 9.59 8.82v79.35c0 2.506667-.733333 4.15-2.2 4.93-4.192117 1.564528-8.807883 1.564528-13 0-1.466667-.78-2.2-2.423333-2.2-4.93v-61.5l-51.73 62.62c-1.233813 1.541309-2.763925 2.819802-4.5 3.76-1.783386.827275-3.734929 1.227855-5.7 1.17-2.159759.068329-4.308786-.330776-6.3-1.17-1.806199-.876476-3.381704-2.164281-4.6-3.76l-51.86-62.62v61.46c0 2.506667-.733333 4.15-2.2 4.93-2.038817.891268-4.258233 1.291996-6.48 1.17-2.179235.114976-4.354849-.285885-6.35-1.17-1.466667-.78-2.2-2.423333-2.2-4.93v-79.38c0-5.88 3.153333-8.82 9.46-8.82 3.928466-.1272469 7.69851 1.5532418 10.23 4.56l59.64 72zm69.88 89.2c-25.586667 0-38.38-8.04-38.38-24.12v-64.31c0-2.5066667.733333-4.15 2.2-4.93 1.995151-.8841148 4.170765-1.284976 6.35-1.17 2.221767-.1219957 4.441183.2787322 6.48 1.17 1.466667.78 2.2 2.4233333 2.2 4.93v64.31c0 2.766667 1.706667 5.143333 5.12 7.13s8.923333 2.986667 16.53 3h38.9c7.606667 0 13.116667-1 16.53-3s5.12-4.376667 5.12-7.13v-64.31c0-2.5066667.733333-4.15 2.2-4.93 2.038817-.8912678 4.258233-1.2919957 6.48-1.17 2.179235-.114976 4.354849.2858852 6.35 1.17 1.466667.78 2.2 2.4233333 2.2 4.93v64.31c0 16.08-12.793333 24.12-38.38 24.12zm146.77-80v74.42c0 2.506667-.73333 4.15-2.2 4.93-2.03882.891268-4.25823 1.291996-6.48 1.17-2.17923.114976-4.35485-.285885-6.35-1.17-1.46667-.78-2.2-2.423333-2.2-4.93v-74.37h-39c-2.073333 0-3.433333-.5833333-4.08-1.75-.755164-1.6426861-1.09841-3.4447282-1-5.25-.09841-1.8052718.244836-3.6073139 1-5.25.666667-1.1666667 2.026667-1.75 4.08-1.75h95.42c2.07333 0 3.43333.5833333 4.08 1.75.75516 1.6426861 1.09841 3.4447282 1 5.25.09841 1.8052718-.24484 3.6073139-1 5.25-.66667 1.1666667-2.02667 1.75-4.08 1.75zm76.44-14.39c2.11512-.077278 4.22051.3226082 6.16 1.17 1.60183.7592927 2.97986 1.9202773 4 3.37l56.53 80.64c.58954.889797.90586 1.932633.91 3-.00585.969632-.29808 1.915918-.84 2.72-.57489.87629-1.32371 1.625107-2.2 2.2-.92625.618067-1.9366 1.099666-3 1.43-1.09095.341157-2.22696.516447-3.37.52-1.10747.019618-2.20811-.177409-3.24-.58-.99178-.422028-1.84443-1.115233-2.46-2l-15.38-22.33h-72.09l-14.42 22.3c-.56147.909699-1.40396 1.611774-2.4 2-1.01407.391665-2.09295.588441-3.18.58-1.09992-.010362-2.19207-.185646-3.24-.52-1.0731-.333414-2.08591-.836444-3-1.49-.85695-.59831-1.60169-1.343047-2.2-2.2-.56112-.821073-.85453-1.795613-.84051-2.79.04706-1.013653.36102-1.996937.91051-2.85l53.16-80.64c.95133-1.4690771 2.30034-2.6377518 3.89-3.37 1.99106-.8388553 4.14073-1.2346683 6.3-1.16zm-26.06 56.14h53.55l-27.49-40.32zm122.86-41.7v74.42c0 2.506667-.73333 4.15-2.2 4.93-2.03882.891268-4.25823 1.291996-6.48 1.17-2.17923.114976-4.35485-.285885-6.35-1.17-1.46667-.78-2.2-2.423333-2.2-4.93v-74.42h-39c-2.07333 0-3.43333-.5833333-4.08-1.75-.75516-1.6426861-1.09841-3.4447282-1-5.25-.09841-1.8052718.24484-3.6073139 1-5.25.66667-1.1666667 2.02667-1.75 4.08-1.75h95.42c2.07333 0 3.43333.5833333 4.08 1.75.75516 1.6426861 1.09841 3.4447282 1 5.25.09841 1.8052718-.24484 3.6073139-1 5.25-.66667 1.1666667-2.02667 1.75-4.08 1.75zm89.72 80c-25.58667 0-38.38-8.04-38.38-24.12v-64.36c0-2.5066667.73333-4.15 2.2-4.93 1.99515-.8841148 4.17077-1.284976 6.35-1.17 2.22177-.1219957 4.44118.2787322 6.48 1.17 1.46667.78 2.2 2.4233333 2.2 4.93v64.31c0 2.766667 1.70667 5.143333 5.12 7.13s8.92333 2.986667 16.53 3h38.9c7.60667 0 13.11667-1 16.53-3s5.12-4.376667 5.12-7.13v-64.31c0-2.5066667.73333-4.15 2.2-4.93 2.03882-.8912678 4.25823-1.2919957 6.48-1.17 2.17923-.114976 4.35485.2858852 6.35 1.17 1.46667.78 2.2 2.4233333 2.2 4.93v64.31c0 16.08-12.79333 24.12-38.38 24.12zm126.67-40.71c-25.58667 0-38.38-8.04-38.38-24.12v-5.11c0-16.08 12.79333-24.12 38.38-24.12h13c2.07333 0 3.43333.5833333 4.08 1.75.75516 1.6426861 1.09841 3.4447282 1 5.25.09841 1.8052718-.24484 3.6073139-1 5.25-.66667 1.1666667-2.02667 1.75-4.08 1.75h-13.35c-7.60667 0-12.98667.9733333-16.14 2.92s-4.73 4.3466667-4.73 7.2v5.06c0 2.7666667 1.57667 5.1433333 4.73 7.13s8.53333 2.9866667 16.14 3h30.6c25.58667 0 38.38 8.04 38.38 24.12v6.48c0 16.08-12.79333 24.12-38.38 24.12h-63.53c-2.07333 0-3.43333-.583333-4.08-1.75-1.2964-3.379953-1.2964-7.120047 0-10.5.66667-1.166667 2.02667-1.75 4.08-1.75h63.92c7.60667 0 12.98667-.973333 16.14-2.92s4.73-4.346667 4.73-7.2v-6.48c0-2.766667-1.57667-5.143333-4.73-7.13s-8.53333-2.986667-16.14-3z" fill="#fff"/></g></svg>